<?xml version="1.0" encoding="utf-8"?>
<!-- Generator: Adobe Illustrator 25.2.0, SVG Export Plug-In . SVG Version: 6.00 Build 0)  -->
<svg version="1.1" id="Layer_1" xmlns="http://www.w3.org/2000/svg" xmlns:xlink="http://www.w3.org/1999/xlink" x="0px" y="0px"
	 viewBox="0 0 1024 1024" style="enable-background:new 0 0 1024 1024;" xml:space="preserve">
<style type="text/css">
	.st0{fill:#262626;}
	.st1{fill:none;}
</style>
<path class="st0" d="M516.6,561.5l-57.6,99.8c-2.3,4.1-2.3,9.1,0,13.1l104.6,181.2c2.3,4.1,2.3,9,0,13.1l-40.2,69.9
	c-5,8.8-17.7,8.8-22.8,0l-161-280.1c-2.3-4.1-2.3-9.1,0-13.1l47.2-81.6l5.1-8.9l2.3-4L454,447.3c2.3-4.1,6.7-6.6,11.4-6.6h206.5
	c4.7,0,9-2.5,11.4-6.6l134.3-232.6c5.1-8.7-1.3-19.7-11.4-19.7H630c-10.1,0-16.4-10.9-11.4-19.7l14.9-25.8l35.9-62.1
	c2.3-4.1,6.7-6.6,11.4-6.6h320.5c10.1,0,16.4,10.9,11.4,19.7l-265,461c-2.3,4.1-6.7,6.6-11.4,6.6H527.9
	C523.2,555,518.9,557.5,516.6,561.5z"/>
<line class="st1" x1="429.8" y1="566.8" x2="429" y2="565.4"/>
<path class="st0" d="M580.2,142.6l-411.5,0.5c-7.4,0-13.4,6.2-13.1,13.6l0,0c0.3,7,6,12.6,13,12.6l379.8,2.5
	c10,0.1,16.3,10.9,11.3,19.7L327.2,597.3c-5,8.8-17.7,8.8-22.8,0l-72.8-126.7c-2.3-4-2.3-9,0-13.1l32.2-56.2
	c5.1-8.9,18-8.8,22.9,0.3L307,439c4.9,9,17.8,9.2,22.9,0.2l95.9-167.4c5-8.8-1.3-19.7-11.5-19.7l-247.6,1.4c-4.7,0-9,2.5-11.3,6.6
	l-11.1,19.3c-5,8.8-17.7,8.8-22.8,0L11.3,87.4c-5-8.7,1.3-19.7,11.4-19.7h585.4c10.1,0,16.4,10.9,11.4,19.7L591.6,136
	C589.3,140.1,584.9,142.6,580.2,142.6z"/>
</svg>
