<?xml version="1.0" encoding="utf-8"?>
<!-- Generator: Adobe Illustrator 25.2.0, SVG Export Plug-In . SVG Version: 6.00 Build 0)  -->
<svg version="1.1" id="Layer_1" xmlns="http://www.w3.org/2000/svg" xmlns:xlink="http://www.w3.org/1999/xlink" x="0px" y="0px"
	 viewBox="0 0 1024 1024" style="enable-background:new 0 0 1024 1024;" xml:space="preserve">
<style type="text/css">
	.st0{fill:#FFFFFF;}
	.st1{fill:none;}
</style>
<path class="st0" d="M516.7,563.5l-57.6,99.8c-2.3,4.1-2.3,9.1,0,13.1l104.6,181.2c2.3,4.1,2.3,9,0,13.1l-40.2,69.9
	c-5,8.8-17.7,8.8-22.7,0l-160.9-280c-2.3-4.1-2.3-9,0-13.1l47.1-81.6l5.1-8.9l2.3-4l59.8-103.6c2.3-4.1,6.7-6.6,11.4-6.6H672
	c4.7,0,9-2.5,11.4-6.6l134.3-232.5c5-8.7-1.3-19.7-11.4-19.7H630.1c-10.1,0-16.4-10.9-11.4-19.7l14.9-25.8l35.9-62.1
	c2.3-4.1,6.7-6.6,11.4-6.6h320.4c10.1,0,16.4,10.9,11.4,19.7L747.8,550.4c-2.3,4.1-6.7,6.6-11.4,6.6H528.1
	C523.4,556.9,519.1,559.4,516.7,563.5z"/>
<line class="st1" x1="429.8" y1="566.8" x2="429" y2="565.4"/>
<path class="st0" d="M580.4,144.7L169,145.2c-7.4,0-13.4,6.2-13.1,13.6v0c0.3,7,6,12.6,13,12.6l379.7,2.5
	c10,0.1,16.3,10.9,11.3,19.6L327.4,599.3c-5,8.8-17.7,8.8-22.8,0l-72.8-126.6c-2.3-4-2.3-9,0-13.1l32.2-56.2
	c5.1-8.9,18-8.8,22.9,0.3l20.3,37.3c4.9,9,17.8,9.2,22.9,0.2l95.9-167.3c5-8.8-1.3-19.7-11.5-19.6l-247.5,1.4c-4.7,0-9,2.5-11.3,6.6
	l-11.1,19.3c-5,8.8-17.7,8.8-22.8,0L11.6,89.5c-5-8.7,1.3-19.7,11.4-19.7h585.2c10.1,0,16.4,10.9,11.4,19.6l-27.9,48.7
	C589.4,142.2,585.1,144.7,580.4,144.7z"/>
</svg>
